<?xml version="1.0" standalone="no"?>
<!DOCTYPE svg PUBLIC "-//W3C//DTD SVG 1.1//EN" "http://www.w3.org/Graphics/SVG/1.1/DTD/svg11.dtd" >
<svg xmlns="http://www.w3.org/2000/svg">
<metadata>Generated by IcoMoon</metadata>
<defs>
<font id="icomoon" horiz-adv-x="1024">
<font-face units-per-em="1024" ascent="960" descent="-64" />
<missing-glyph horiz-adv-x="1024" />
<glyph unicode="&#x20;" horiz-adv-x="512" d="" />
<glyph unicode="&#xe900;" glyph-name="add" d="M1024 472.32h-487.68v487.68h-48.64v-487.68h-487.68v-48.64h487.68v-487.68h48.64v487.68h487.68z" />
<glyph unicode="&#xe901;" glyph-name="animal" d="M592 392.576c-11.008 0-19.968-9.728-19.968-21.76s8.96-21.76 19.968-21.76c11.008 0 19.968 9.728 19.968 21.76s-8.96 21.76-19.968 21.76zM770.432 275.072c-18.688 20.48-64.256 75.776-100.096 165.504-26.624 69.888-88.704 114.944-158.080 114.944s-131.328-45.056-158.080-114.944c-45.056-112.64-106.496-172.16-107.008-172.8-0.128-0.128-0.128-0.128-0.256-0.256-36.224-35.456-57.088-86.144-57.088-139.264 0-64.896 28.288-121.216 77.44-157.056 45.696-33.28 102.4-43.264 155.52-27.392 26.624 7.936 57.472 12.16 89.088 12.16 32.256 0 63.488-4.352 90.368-12.544 51.584-15.744 108.16-7.168 154.88 26.624 49.664 35.84 78.464 92.8 78.464 158.208 0.128 57.728-23.68 111.104-65.152 146.816zM735.232 6.528c-36.096-25.984-80.512-33.664-121.984-20.992-30.464 9.344-65.408 14.208-101.248 14.208-35.2 0-69.632-4.736-99.712-13.696-41.984-12.544-86.656-4.608-122.752 21.632-37.76 27.392-59.648 70.4-59.648 120.704 0 40.576 15.872 79.488 43.648 106.624 4.224 4.096 69.12 67.456 117.376 188.288 0 0.128 0.128 0.256 0.128 0.384 20.48 53.632 67.968 88.192 121.216 88.192s100.736-34.688 121.216-88.192c0-0.128 0.128-0.256 0.128-0.384 39.168-98.048 89.6-158.592 109.44-180.096 0.512-0.64 1.152-1.152 1.792-1.792 32.256-27.392 50.816-68.608 50.816-113.152 0.128-50.56-22.144-94.080-60.416-121.728zM646.528 305.792c-6.016 10.112-18.432 12.928-27.648 6.4s-11.904-20.096-5.888-30.208c30.464-50.944 59.264-84.992 73.728-100.608 7.808-8.448 20.48-8.448 28.288 0.128s7.68 22.4-0.128 30.848c-13.312 14.336-39.936 45.824-68.352 93.44zM447.232 662.016c19.2 36.608 27.264 85.376 22.016 133.504-10.112 93.824-69.504 172.544-135.808 163.84-29.952-3.84-56.576-25.344-75.008-60.416-19.2-36.608-27.264-85.248-22.016-133.504 16.64-153.344 147.456-224.256 210.816-103.424zM293.12 877.312c11.008 20.864 28.032 39.040 50.048 39.040 39.424 0 78.848-57.6 86.272-125.952 4.224-39.168-1.92-78.080-17.024-106.752-46.080-87.808-125.44-13.824-136.32 86.912-4.096 39.168 2.048 78.080 17.024 106.752zM255.616 427.264c5.76 38.912-1.28 81.92-19.84 121.088s-46.72 70.4-79.104 87.68c-34.432 18.432-69.76 19.328-99.328 2.688s-49.28-48.64-55.424-89.984c-5.76-38.912 1.28-81.92 19.84-121.088s46.72-70.4 79.104-87.68c32.128-17.28 67.84-20.48 99.328-2.688 29.568 16.768 49.28 48.64 55.424 89.984zM181.76 376.064c-18.048-10.24-40.576-9.088-63.36 3.072-24.832 13.312-46.464 37.632-61.184 68.608-14.592 30.976-20.352 64.384-15.872 94.080 4.096 27.264 16.256 48 34.304 58.112 0 0 0 0 0 0 19.968 11.264 43.136 7.68 63.36-3.072 24.832-13.184 46.592-37.504 61.312-68.48 14.592-30.976 20.352-64.384 15.872-94.080-4.096-27.392-16.256-48-34.432-58.24zM662.016 600.576c60.672 0 115.968 72.192 125.952 164.48 10.624 98.176-34.688 194.56-106.752 194.56-60.672 0-115.968-72.192-125.952-164.48-10.624-98.432 34.816-194.56 106.752-194.56zM594.944 790.016c7.424 68.224 46.848 125.952 86.272 125.952 1.792 0 3.456-0.128 4.864-0.256 21.376-2.56 37.888-22.912 47.616-43.648 13.184-28.288 18.56-65.28 14.592-101.76-7.68-70.656-50.688-131.328-91.136-125.568-0.128 0-0.128 0-0.256 0-18.176 2.304-35.456 18.304-47.36 43.648-13.184 28.032-18.56 65.152-14.592 101.632zM1022.080 548.736c-12.672 84.992-83.072 125.568-154.752 87.296-67.072-35.84-110.848-128.384-98.944-208.896 12.8-86.016 83.968-125.184 154.752-87.168 67.072 35.84 110.848 128.384 98.944 208.768zM905.472 379.136c-22.784-12.16-45.312-13.312-63.36-3.072v0c-18.048 10.24-30.208 30.848-34.304 58.112-9.088 61.44 25.728 135.168 77.056 162.688 47.104 25.216 89.216 1.536 97.664-55.040 9.088-61.312-25.6-135.168-77.056-162.688z" />
<glyph unicode="&#xe902;" glyph-name="arow-down" d="M1013.504 711.296c-14.080 14.080-36.992 14.080-51.2 0l-449.792-450.688-450.816 450.688c-14.080 14.080-36.992 14.080-51.2 0s-14.080-36.992 0-51.2l475.392-475.392c7.040-7.040 15.872-10.624 25.6-10.624 8.832 0 18.56 3.584 25.6 10.624l475.392 475.392c15.104 14.208 15.104 37.12 1.024 51.2v0z" />
<glyph unicode="&#xe903;" glyph-name="arrow-up" d="M263.68 625.536c-10.24-13.952-10.24-37.12 0-51.584 9.856-13.952 26.368-13.952 36.352 0l186.112 261.632v-863.488c0-20.096 11.392-36.096 25.728-36.096s26.112 16 26.112 36.096v863.488l185.728-261.632c10.24-13.952 26.752-13.952 36.736 0 10.24 14.464 10.24 37.632 0 51.584l-230.272 323.584c-9.856 14.464-26.368 14.464-36.352 0l-230.144-323.584z" />
<glyph unicode="&#xe904;" glyph-name="check" d="M450.176 281.088c3.2-2.56 6.912-3.712 10.624-3.712 4.736 0 9.344 1.92 12.8 5.76l273.024 307.2c6.272 7.040 5.632 17.792-1.408 24.064s-17.792 5.632-24.064-1.408l-262.272-295.168-158.080 126.464c-7.296 5.888-18.048 4.608-23.936-2.688-5.888-7.424-4.736-18.048 2.688-23.936l170.624-136.576zM0 960v-1024h1024v1024h-1024zM989.824-29.824h-955.648v955.648h955.776v-955.648z" />
<glyph unicode="&#xe905;" glyph-name="clothes" d="M1019.136 591.744l-165.12 165.12c-2.432 2.432-5.376 3.968-8.704 4.608l-181.632 33.024c-8.96 1.664-17.536-4.352-19.2-13.312-0.128-1.024-0.256-1.92-0.256-2.944 0-5.248-0.512-10.496-1.408-15.616l-114.176 28.544v5.248c44.672 9.088 73.472 52.736 64.384 97.408s-52.864 73.6-97.536 64.512c-38.4-7.808-66.048-41.6-66.048-80.896h33.024c0 27.392 22.144 49.536 49.536 49.536s49.536-22.144 49.536-49.536-22.144-49.536-49.536-49.536c-9.088 0-16.512-7.424-16.512-16.512v-20.096l-114.176-28.544c-0.896 5.12-1.408 10.368-1.408 15.616 0 4.864-2.176 9.6-5.888 12.672-3.712 3.2-8.704 4.48-13.568 3.584l-181.632-33.024c-3.328-0.64-6.4-2.176-8.704-4.608l-165.12-165.12c-6.4-6.4-6.4-16.896 0-23.296l131.968-132.224c6.4-6.4 16.896-6.4 23.296 0l37.888 37.888v-108.8h-115.584c-45.44 0.128-82.432-36.608-82.56-82.176-0.128-26.24 12.416-50.944 33.536-66.56-36.48-26.624-44.416-77.824-17.792-114.304 4.992-6.784 11.008-12.8 17.792-17.792-36.608-27.008-44.416-78.464-17.536-115.072 15.616-21.12 40.32-33.664 66.56-33.536h594.56c4.352 0 8.576 1.792 11.648 4.864l132.224 132.096c3.072 3.072 4.736 7.296 4.736 11.648h0.128v389.632l37.888-37.888c6.4-6.4 16.896-6.4 23.296 0l132.096 132.096c6.528 6.4 6.528 16.896 0 23.296zM512 761.344l120.064-30.080c-24.832-42.496-70.912-67.968-120.064-66.56-49.152-1.408-95.232 24.064-120.064 66.56l120.064 30.080zM33.024 282.88c0 27.392 22.144 49.536 49.536 49.536h363.392c27.392 0 49.536-22.144 49.536-49.536s-22.144-49.536-49.536-49.536h-363.392c-27.392 0-49.536 22.144-49.536 49.536zM33.024 150.656c0 27.392 22.144 49.536 49.536 49.536h363.392c27.392 0 49.536-22.144 49.536-49.536s-22.144-49.536-49.536-49.536h-363.392c-27.392 0-49.536 22.272-49.536 49.536zM445.952-30.976h-363.392c-27.392 0-49.536 22.144-49.536 49.536s22.144 49.536 49.536 49.536h363.392c27.392 0 49.536-22.144 49.536-49.536s-22.144-49.536-49.536-49.536zM693.632-7.552v75.776h75.776l-75.776-75.776zM875.392 471.296l-103.936 103.936-23.296-23.296 44.672-44.672v-406.144h-115.712c-9.088 0-16.512-7.424-16.512-16.512v-115.584h-148.992c27.52 35.584 20.864 86.784-14.72 114.304-0.64 0.512-1.152 0.896-1.792 1.408 36.48 26.624 44.416 77.824 17.792 114.304-4.992 6.784-11.008 12.8-17.792 17.792 36.608 27.008 44.416 78.464 17.536 115.072-15.616 21.12-40.32 33.664-66.688 33.536h-214.656v141.824l44.672 44.672-23.296 23.296-103.936-103.936-108.8 108.8 149.888 149.888 158.592 28.8c10.752-71.552 80.128-127.104 163.712-127.104s152.96 55.424 163.712 127.104l158.592-28.8 149.888-149.888-108.928-108.8zM66.048 299.392h396.416v-33.024h-396.416v33.024zM66.048 167.168h379.904v-33.024h-379.904v33.024zM66.048 35.072h379.904v-33.024h-379.904v33.024z" />
<glyph unicode="&#xe906;" glyph-name="email" d="M453.504 956.672c-231.040-25.728-418.56-209.024-448.896-439.424-43.136-326.528 223.872-604.288 547.2-579.712 118.912 9.088 230.272 62.208 317.44 143.488l7.552 7.040c8.576 8.064 9.088 21.504 1.024 30.208l-29.184 31.104c-8.064 8.576-21.504 9.088-30.208 1.024l-15.616-14.592c-97.024-90.496-230.272-131.2-364.544-108.288-190.336 32.512-336.768 194.176-351.616 386.816-19.712 254.592 185.728 467.456 438.016 460.16 232.576-6.784 414.080-205.184 414.080-437.888v-31.232c0-49.92-43.008-89.856-93.824-84.864-44.288 4.352-76.8 44.16-76.8 88.704v188.16c0 11.776-9.6 21.376-21.376 21.376h-42.752c-8.576 0-15.872-5.12-19.2-12.416-42.88 46.848-104.32 76.416-172.8 76.416-129.408 0-234.624-105.216-234.624-234.624s105.216-234.752 234.624-234.752c81.536 0 153.344 41.856 195.456 105.088 31.744-52.992 90.496-87.808 157.568-83.328 90.624 6.016 158.976 85.504 158.976 176.256v36.608c0 301.568-262.144 543.104-570.496 508.672zM512 298.624c-82.304 0-149.376 66.944-149.376 149.376s67.072 149.376 149.376 149.376 149.376-67.072 149.376-149.376-67.072-149.376-149.376-149.376z" />
<glyph unicode="&#xe907;" glyph-name="football" d="M319.36 922.496c-63.488-25.728-120.448-63.616-169.344-112.512-48.896-48.768-86.784-105.856-112.512-169.344-24.832-61.312-37.504-126.208-37.504-192.64 0-66.56 12.672-131.328 37.504-192.64 25.728-63.488 63.616-120.576 112.512-169.344 48.896-48.896 105.856-86.784 169.344-112.512 61.312-24.96 126.208-37.504 192.64-37.504s131.328 12.672 192.64 37.504c63.488 25.728 120.576 63.616 169.344 112.512 48.896 48.896 86.784 105.856 112.512 169.344 24.96 61.312 37.504 126.080 37.504 192.64s-12.544 131.328-37.504 192.64c-25.728 63.488-63.616 120.576-112.512 169.344s-105.856 86.784-169.344 112.512c-61.312 24.96-126.080 37.504-192.64 37.504s-131.328-12.544-192.64-37.504zM128 232.448c-24.704 15.488-47.36 33.28-67.456 54.272-30.72 86.528-35.968 180.096-15.616 268.928 9.6 18.944 20.48 36.992 32.768 54.4 3.84 5.376 7.296 11.008 11.392 16.128l115.584-68.352c0-0.896 0-1.92 0-2.944-0.256-62.208 6.016-123.776 18.56-184.576 0-0.256 0.128-0.384 0.128-0.64l-89.6-140.544c-1.92 1.024-3.968 2.176-5.76 3.328zM471.552-5.12c19.968-10.112 40.448-18.816 61.568-25.728-89.472-3.84-179.84 17.024-259.84 62.976l193.664-34.56c1.408-0.896 2.944-1.792 4.608-2.688zM470.784 29.824l-228.608 40.704c-26.752 32.512-50.816 66.816-71.424 103.552-5.248 9.344-11.136 18.432-15.616 28.16l89.472 140.416c1.92-0.512 4.224-1.024 6.656-1.664 56.064-14.976 113.024-25.6 170.368-34.048 3.328-0.512 6.144-0.896 8.576-1.152l107.392-185.472c-18.56-26.24-37.504-52.224-56.704-77.952-3.2-4.224-6.528-8.448-10.112-12.544zM851.072 108.928c-18.176-18.176-37.504-34.56-57.728-49.28-3.328 26.752-9.088 53.12-17.28 78.72l114.432 213.632c31.488 14.336 61.952 30.592 90.24 50.816 3.712 2.56 6.784 5.504 9.088 8.704-8.192-110.336-54.528-218.368-138.752-302.592zM845.952 385.92c4.224-8.064 8.448-16.384 12.672-24.704l-110.592-206.336c-0.64-0.128-1.28-0.256-1.92-0.384-59.776-11.136-120.064-17.152-180.864-17.408l-110.336 190.848c17.152 31.872 34.176 63.872 51.072 96 11.52 21.76 22.784 43.648 33.92 65.408l228.352 23.424c28.16-40.832 54.656-82.816 77.696-126.848zM799.616 630.656c-10.88-28.672-22.4-56.96-33.92-85.376l-222.464-22.912c-2.688 3.456-5.376 6.912-8.32 10.24-26.24 29.696-52.736 59.392-79.104 88.96 0.256 0.256 0.512 0.512 0.768 0.768-10.624 10.624-21.376 21.248-32 32l61.824 186.624c4.224 1.152 8.576 2.048 12.928 2.56 33.664 3.456 67.456 7.296 101.12 9.216 20.736 1.152 41.472 1.792 62.464 0.384l153.216-172.8c-5.12-16.64-10.368-33.408-16.512-49.664zM851.072 787.072c42.24-42.368 75.008-90.624 98.176-142.208-28.672 19.712-59.264 35.968-91.392 49.152-4.992 2.048-10.112 3.84-15.36 5.632l-150.912 170.112c1.024 7.296 1.536 14.72 1.792 22.144 57.472-23.424 111.232-58.368 157.696-104.832zM358.4 900.864c0.64-0.384 0.896-0.768 1.28-0.896 34.432-11.904 65.792-29.44 95.36-50.304l-57.856-174.336c-0.256-0.128-0.64-0.128-0.896-0.256-11.904-4.864-23.936-9.344-35.584-14.592-48-21.888-94.848-45.952-139.008-75.008l-114.176 67.584c0.128 3.584 0.768 7.168 2.048 10.368 7.68 20.48 15.232 40.96 23.936 61.056 6.656 15.36 14.336 30.336 22.656 44.928 5.376 6.016 11.008 11.904 16.896 17.792 54.272 54.272 118.272 92.672 186.624 115.456-0.512-0.64-0.896-1.28-1.28-1.792z" />
<glyph unicode="&#xe908;" glyph-name="handshake" d="M1020.544 508.928c-4.992 6.656-13.568 7.168-19.2 1.28l-26.624-28.416-144.384 170.24c-5.376 6.272-13.952 6.272-19.2-0.128-5.248-6.272-5.248-16.512 0.128-22.784l143.232-168.832-70.912-75.648-235.904 283.776 234.496 263.68c5.504 6.144 5.632 16.384 0.512 22.784-5.12 6.528-13.696 6.784-19.2 0.64l-244.608-274.944c-2.688-2.944-4.224-7.040-4.224-11.392-0.128-4.352 1.408-8.576 3.968-11.648l21.76-26.112-47.872-59.52-92.288 11.648c-4.096 0.64-8.064-1.152-11.008-4.608l-37.504-44.16-69.76 81.92 23.552 28.288c2.56 3.072 3.968 7.296 3.968 11.648s-1.536 8.448-4.224 11.392l-244.736 274.944c-5.376 6.144-14.080 5.888-19.2-0.64s-4.864-16.64 0.512-22.784l164.992-185.6-241.664-281.856-42.496 45.312c-5.504 5.888-14.208 5.376-19.2-1.28s-4.608-16.768 1.024-22.784l127.36-135.936c2.56-2.816 5.888-4.096 9.088-4.096 3.456 0 7.040 1.664 9.6 4.736l23.040 27.776 126.848-148.736-23.296-28.16c-5.248-6.272-5.248-16.512 0.128-22.656l47.616-56.576c0 0 0 0 0 0s0 0 0 0l47.616-55.936 95.104-113.024c2.688-3.2 6.144-4.736 9.6-4.736s6.912 1.536 9.6 4.736l24.576 29.312 25.088-29.312c2.688-3.072 6.016-4.608 9.472-4.608s6.912 1.536 9.6 4.736l38.016 45.184 5.632-6.656c2.688-3.2 6.144-4.736 9.6-4.736s6.912 1.536 9.6 4.736l38.016 45.184 5.632-6.656c2.688-3.2 6.144-4.736 9.6-4.736s6.912 1.536 9.6 4.736l38.016 45.184 5.632-6.656c2.688-3.2 6.144-4.736 9.6-4.736s6.912 1.536 9.6 4.736l47.616 56.576c5.248 6.272 5.248 16.512 0 22.784l-70.656 83.968 127.616 160.768 24.704-29.824c2.688-3.2 6.144-4.736 9.6-4.736 3.2 0 6.528 1.408 9.088 4.096l127.36 135.936c5.632 6.016 6.144 16.256 1.152 22.912zM334.208 499.84c0-38.912-26.624-70.528-59.392-70.528-13.056 0-25.6 5.12-35.712 14.208l83.072 98.816c7.68-12.16 12.032-27.008 12.032-42.496zM341.376 565.248l22.656 26.88 12.288-14.336-24.96-30.336c-2.816 6.272-6.144 12.288-9.984 17.792zM140.416 371.84l-55.040 58.624 241.152 281.344 49.792-55.936-235.904-284.032zM219.776 420.736c4.864-4.736 9.984-8.832 15.488-12.16-4.352-5.248-8.704-10.752-13.184-16.256-5.376-6.656-10.624-13.056-15.744-19.328l-13.44 15.744 26.88 32zM320 194.56l28.544-33.408-14.080-17.024-28.416 33.664 13.952 16.768zM382.080 88.064l-28.288 33.28 14.208 17.024 28.416-33.408-14.336-16.896zM415.744 82.304l28.544-33.536-14.592-17.28-28.416 33.792 14.464 17.024zM477.312-25.088l-28.416 33.792 14.72 17.408 28.544-33.536-14.848-17.664zM734.336 90.496l-5.632 6.656-54.784 65.152c0 0 0 0 0 0l-16.64 19.84c-5.248 6.272-13.824 6.272-19.2 0-5.248-6.272-5.248-16.512 0-22.784l61.824-73.472-28.416-33.792-77.056 91.648c-5.248 6.272-13.824 6.272-19.2 0-5.248-6.272-5.248-16.512 0-22.784l16.64-19.84 45.184-53.76-28.416-33.792-44.544 52.992-15.872 18.816c0 0 0 0 0 0l-16.64 19.84c-5.248 6.272-13.824 6.272-19.2 0-5.248-6.272-5.248-16.512 0-22.784l61.824-73.472-28.416-33.792-320.128 375.296c5.12 6.272 10.496 12.8 15.872 19.456 7.936 9.856 15.872 19.456 22.912 27.904 3.456-0.512 6.912-0.768 10.368-0.768 47.744 0 86.528 46.080 86.528 102.784 0 4.224-0.256 8.448-0.768 12.544l35.072 42.624 36.736-43.136-128.128-150.912c-2.816-3.2-4.224-7.68-3.968-12.288s2.048-8.832 5.12-11.776c3.2-3.072 77.44-69.888 206.464 85.504l250.88-298.24-28.416-33.664zM701.696 242.432l-180.48 214.528c-2.56 3.072-5.76 4.736-9.856 4.736-3.712-0.128-7.168-1.92-9.728-5.12-83.2-105.344-139.008-108.416-164.096-101.632l166.016 195.712 65.152-8.192-9.728-12.16c-5.12-6.4-4.992-16.64 0.384-22.784s13.952-5.888 19.2 0.512l77.952 97.024 171.136-203.52-125.952-159.104zM725.504 705.536c0-27.776 19.072-50.432 42.368-50.432 23.424 0 42.368 22.656 42.368 50.432s-19.072 50.432-42.368 50.432c-23.424 0-42.368-22.656-42.368-50.432zM783.104 705.536c0-9.984-6.912-18.176-15.232-18.176-8.448 0-15.232 8.192-15.232 18.176s6.912 18.176 15.232 18.176c8.448-0.128 15.232-8.192 15.232-18.176z" />
<glyph unicode="&#xe909;" glyph-name="holiday" d="M809.856 447.872c-2.56 7.168-10.496 12.032-19.456 12.032-9.088 0.128-17.024-4.608-19.84-11.776l-183.168-460.288c-3.328-8.448 1.664-17.536 11.52-20.992 58.496-20.608 121.344-30.848 184.192-30.848s125.696 10.24 184.192 30.848c9.728 3.456 14.72 12.288 11.648 20.608l-169.088 460.416zM632.576-7.552l156.8 393.856 144.64-393.728c-96.768-29.952-204.672-29.952-301.44-0.128zM606.464 347.904c-27.648-18.56-44.672-44.928-48-74.24s7.296-57.856 30.208-80.384c4.096-3.968 9.856-6.144 15.744-6.144 4.608 0 9.344 1.28 13.184 3.968 8.704 6.016 9.856 16.768 2.56 24.064-15.744 15.488-23.040 35.072-20.736 55.296 2.304 20.096 14.080 38.272 33.024 50.944 27.776 18.688 44.8 45.184 48.128 74.624 3.2 29.312-7.68 57.856-30.72 80.384 115.072 19.584 202.88 119.68 202.88 240 0.128 134.4-109.312 243.584-243.84 243.584-89.856 0-172.8-49.92-214.912-128.384-5.632 0.384-11.264 0.64-16.896 0.64-134.528 0-243.968-109.184-243.968-243.456 0-130.944 104.192-238.208 234.24-243.2l19.2-18.56c16-15.488 23.552-35.2 21.248-55.424s-13.952-38.528-33.024-51.328c-27.648-18.56-44.672-44.928-48-74.24s7.296-57.856 30.208-80.384l70.4-69.504c4.096-3.968 9.856-6.144 15.744-6.144 4.608 0 9.344 1.28 13.184 3.968 8.704 6.016 9.856 16.768 2.56 24.064l-70.4 69.504c-15.744 15.488-23.040 35.072-20.736 55.296s14.080 38.272 33.024 50.944c27.776 18.688 44.8 45.184 48.128 74.624 3.2 29.312-7.68 57.856-30.72 80.384 75.264 12.8 138.752 60.032 173.824 124.928 2.432-0.128 4.864-0.256 7.296-0.384l19.2-18.56c16-15.488 23.552-35.2 21.248-55.424s-14.208-38.528-33.28-51.456zM608.896 925.824c111.744 0 202.752-93.952 202.752-209.408s-90.88-209.28-202.752-209.28c-0.64 0-1.408 0-2.048 0 9.088 25.472 14.080 52.992 14.080 81.536 0 114.048-78.976 210.048-185.216 236.288 36.48 61.952 102.528 100.864 173.184 100.864zM376.96 379.392c-111.744 0-202.752 93.952-202.752 209.408s90.88 209.408 202.752 209.408 202.752-93.952 202.752-209.408c0-115.456-90.88-209.408-202.752-209.408zM776.064 195.584c-4.736 9.216-18.432 13.312-29.056 8.32-11.776-5.504-13.824-18.944-4.48-27.008 6.656-5.376 17.024-6.528 25.088-2.56 8.576 4.352 12.288 13.568 8.448 21.248-0.512 1.024 0.512-1.024 0 0zM809.472 100.608c3.2-6.272 10.752-10.496 19.072-10.496 8.448 0 16.128 4.352 19.2 10.88s0.896 14.208-5.504 18.944c-6.656 4.864-16.512 5.632-24.064 1.92-8.832-4.224-12.672-13.44-8.704-21.248 0.512-1.024-0.512 1.024 0 0zM743.040 27.264c-3.456 6.656-11.776 11.008-20.48 10.496-8.576-0.512-16-5.632-18.304-12.416-4.992-14.848 15.744-27.392 31.232-18.688 8.064 4.352 11.264 13.184 7.552 20.608-0.512 1.024 0.512-1.024 0 0zM35.2 883.456c-8.064 6.656-21.12 6.656-29.184 0s-8.064-17.408 0-24.064l26.112-21.632c3.968-3.328 9.344-4.992 14.592-4.992s10.496 1.664 14.592 4.992c8.064 6.656 8.064 17.408 0 24.064l-26.112 21.632zM941.824 788.352c5.248 0 10.496 1.664 14.592 4.992l26.112 21.632c8.064 6.656 8.064 17.408 0 24.064s-21.12 6.656-29.184 0l-26.112-21.632c-8.064-6.656-8.064-17.408 0-24.064 3.968-3.328 9.216-4.992 14.592-4.992zM672.896 607.744c3.328-1.664 6.912-2.432 10.496-2.432 7.040 0 13.952 2.944 17.792 8.32l18.816 26.24c5.76 8.064 2.56 18.56-7.296 23.424-9.728 4.736-22.4 2.176-28.288-6.016l-18.816-26.112c-5.76-8.192-2.56-18.56 7.296-23.424zM242.176 180.736l-26.112-21.632c-8.064-6.656-8.064-17.408 0-24.064 3.968-3.328 9.344-4.992 14.592-4.992s10.496 1.664 14.592 4.992l26.112 21.632c8.064 6.656 8.064 17.408 0 24.064s-21.12 6.656-29.184 0zM32.256 439.168c-11.392 0-20.608-7.68-20.608-17.024v-30.592c0-9.472 9.216-17.024 20.608-17.024s20.608 7.68 20.608 17.024v30.592c0 9.344-9.216 17.024-20.608 17.024zM1003.392 511.488h-36.864c-11.392 0-20.608-7.68-20.608-17.024 0-9.472 9.216-17.024 20.608-17.024h36.864c11.392 0 20.608 7.68 20.608 17.024s-9.216 17.024-20.608 17.024zM353.92 749.056h-36.864c-11.392 0-20.608-7.68-20.608-17.024s9.216-17.024 20.608-17.024h36.864c11.392 0 20.608 7.68 20.608 17.024s-9.216 17.024-20.608 17.024z" />
<glyph unicode="&#xe90a;" glyph-name="house" d="M1018.368 492.8l-153.216 141.44v231.68h-176.64v-68.736l-176.512 162.816-506.368-467.2c-7.168-6.656-7.552-17.664-0.896-24.832 6.656-7.040 17.792-7.552 24.96-0.896l58.624 54.016v-585.088h847.36v585.088l58.624-54.016c3.328-3.2 7.68-4.736 12.032-4.736 4.736 0 9.472 1.92 12.928 5.632 6.656 7.040 6.272 18.176-0.896 24.832zM723.84 830.72h105.984v-163.968l-105.984 97.792v66.176zM406.016-28.928v369.536c0 9.088 7.424 16.384 16.512 16.384h178.816c9.088 0 16.512-7.424 16.512-16.384v-369.536h-211.84zM900.352-28.928h-247.168v369.536c0 28.416-23.296 51.584-51.84 51.584h-178.688c-28.544 0-51.84-23.168-51.84-51.584v-369.536h-247.296v582.656l388.48 358.4 388.48-358.528v-582.528z" />
<glyph unicode="&#xe90b;" glyph-name="layers" d="M512 329.856l-512 315.008 512 315.136 512-315.136-512-315.008zM74.496 644.864l437.504-269.184 437.504 269.184-437.504 269.312-437.504-269.312zM512 132.864l-484.48 298.24 19.584 33.792 464.896-286.080 464.896 286.080 19.584-33.792zM512-64l-484.48 298.24 19.584 33.792 464.896-286.208 464.896 286.208 19.584-33.792z" />
<glyph unicode="&#xe90c;" glyph-name="like-empty" d="M1022.336 654.592c-14.976 177.024-131.456 305.408-277.12 305.408-97.152 0-185.984-56.192-236.032-146.304-49.536 91.264-134.784 146.304-230.4 146.304-145.664 0-262.144-128.384-277.12-305.28-1.152-7.808-6.016-48.896 8.704-115.968 21.248-96.896 70.272-184.832 141.824-254.592l356.736-348.16 362.88 348.16c71.552 69.76 120.576 157.696 141.824 254.464 14.72 67.072 9.856 108.16 8.704 115.968zM975.232 548.352c-19.328-88.32-64.256-168.832-129.792-232.704l-336.256-322.688-330.496 322.56c-65.664 64-110.592 144.512-129.92 232.832-13.952 63.488-8.192 99.328-8.192 99.584l0.256 2.176c12.8 155.008 112.896 267.52 237.952 267.52 92.288 0 173.568-61.056 212.096-159.232l18.176-46.208 18.176 46.208c37.888 96.64 123.52 159.104 217.984 159.104 125.056 0 225.152-112.512 238.208-269.568 0-0.256 5.76-36.096-8.192-99.584z" />
<glyph unicode="&#xe90d;" glyph-name="like-full" d="M1022.336 654.592c-14.976 177.024-131.456 305.408-277.12 305.408-97.152 0-185.984-56.192-236.032-146.304-49.536 91.264-134.784 146.304-230.4 146.304-145.664 0-262.144-128.384-277.12-305.28-1.152-7.808-6.016-48.896 8.704-115.968 21.248-96.896 70.272-184.832 141.824-254.592l356.736-348.16 362.88 348.16c71.552 69.76 120.576 157.696 141.824 254.464 14.72 67.072 9.856 108.16 8.704 115.968z" />
<glyph unicode="&#xe90e;" glyph-name="lock" d="M974.72 610.816h-96.64v151.040c0 109.312-117.76 198.144-262.656 198.144h-206.848c-144.896 0-262.656-88.832-262.656-198.144v-151.040h-96.64c-27.136 0-49.28-16.64-49.28-37.12v-362.88c0-151.552 163.328-274.816 364.032-274.816h295.936c200.704 0 364.032 123.264 364.032 274.688v362.88c0 20.608-22.016 37.248-49.28 37.248zM244.352 761.856c0 68.224 73.6 123.776 164.096 123.776h206.976c90.496 0 164.096-55.552 164.096-123.776v-151.040h-535.168v151.040zM925.568 210.688c0-110.464-119.168-200.32-265.6-200.32h-295.936c-146.432 0-265.6 89.856-265.6 200.32v325.76h827.008v-325.76zM462.72 133.632c0-20.48 22.016-37.12 49.28-37.12 27.136 0 49.28 16.64 49.28 37.12v106.112c5.888 6.144 9.344 13.568 9.344 21.76 0 20.48-22.016 37.12-49.28 37.12h-18.688c-27.136 0-49.28-16.64-49.28-37.12 0-8.064 3.456-15.616 9.344-21.76v-106.112z" />
<glyph unicode="&#xe90f;" glyph-name="logout" d="M221.824 516.48c-9.472 0-17.024-7.68-17.024-17.024v-102.4c0-9.472 7.68-17.024 17.024-17.024s17.024 7.68 17.024 17.024v102.4c0.128 9.344-7.552 17.024-17.024 17.024zM223.744 955.392l-161.408-64.512c-45.44-16.896-62.336-39.68-62.336-84.224v-717.056c0-44.544 16.896-67.456 61.952-84.096l162.048-64.896c8.064-3.072 16.128-4.608 23.936-4.608 34.304 0 59.264 28.672 59.264 68.224v887.68c0 48.64-38.656 80.384-83.456 63.488zM273.024 4.224c0-20.352-10.112-34.048-25.088-34.048-3.712 0-7.808 0.768-11.648 2.176l-162.048 64.896c-32.256 11.904-40.064 22.144-40.064 52.224v717.184c0 30.080 7.808 40.32 40.448 52.48l161.408 64.64c4.224 1.536 8.192 2.432 11.904 2.432 14.976 0 25.088-13.696 25.088-34.048v-887.936zM356.224 857.856h241.024c28.288 0 51.2-22.912 51.2-51.2v-256c0-9.472 7.68-17.024 17.024-17.024 9.472 0 17.024 7.68 17.024 17.024v256c0 47.104-38.272 85.376-85.376 85.376h-240.896c-9.472 0-17.024-7.68-17.024-17.024s7.68-17.152 17.024-17.152zM665.6 362.88c-9.472 0-17.024-7.68-17.024-17.024v-256c0-28.288-22.912-51.2-51.2-51.2h-238.976c-9.472 0-17.024-7.68-17.024-17.024s7.68-17.024 17.024-17.024h238.976c47.104 0 85.376 38.272 85.376 85.376v256c-0.128 9.216-7.68 16.896-17.152 16.896zM1022.72 454.656c-0.896 2.048-2.176 3.968-3.712 5.504l-170.624 170.752c-6.656 6.656-17.408 6.656-24.192 0-6.656-6.656-6.656-17.408 0-24.192l141.568-141.568h-573.184c-9.472 0-17.024-7.68-17.024-17.024 0-9.472 7.68-17.024 17.024-17.024h573.184l-141.568-141.568c-6.656-6.656-6.656-17.408 0-24.192 3.328-3.328 7.68-4.992 12.032-4.992s8.704 1.664 12.032 4.992l170.624 170.624c1.536 1.536 2.816 3.456 3.712 5.504 1.792 4.352 1.792 9.088 0.128 13.184z" />
<glyph unicode="&#xe910;" glyph-name="monitor" d="M946.432 192h-868.864c-42.752 0-77.568 35.84-77.568 80v608c0 44.16 34.816 80 77.568 80h868.864c42.752 0 77.568-35.84 77.568-80v-608c0-44.16-34.816-80-77.568-80zM77.568 928c-25.6 0-46.592-21.504-46.592-48v-608c0-26.496 20.864-48 46.592-48h868.864c25.6 0 46.592 21.504 46.592 48v608c0 26.496-20.864 48-46.592 48 0 0-868.864 0-868.864 0zM709.76-64h-395.52c-8.576 0-15.488 6.912-15.488 15.488s6.912 15.488 15.488 15.488h395.648c8.576 0 15.488-6.912 15.488-15.488s-7.040-15.488-15.616-15.488zM512-57.6c-8.576 0-15.488 10.624-15.488 23.808v227.584c0 13.184 6.912 23.808 15.488 23.808s15.488-10.624 15.488-23.808v-227.584c0-13.184-6.912-23.808-15.488-23.808z" />
<glyph unicode="&#xe911;" glyph-name="other" d="M146.304 228.608c-80.64 0-146.304-65.664-146.304-146.304s65.664-146.304 146.304-146.304 146.304 65.664 146.304 146.304-65.664 146.304-146.304 146.304zM146.304-27.392c-60.544 0-109.696 49.152-109.696 109.696s49.152 109.696 109.696 109.696 109.696-49.152 109.696-109.696-49.152-109.696-109.696-109.696zM512 228.608c-80.64 0-146.304-65.664-146.304-146.304s65.664-146.304 146.304-146.304 146.304 65.664 146.304 146.304-65.664 146.304-146.304 146.304zM512-27.392c-60.544 0-109.696 49.152-109.696 109.696s49.152 109.696 109.696 109.696 109.696-49.152 109.696-109.696-49.152-109.696-109.696-109.696zM877.696 228.608c-80.64 0-146.304-65.664-146.304-146.304s65.664-146.304 146.304-146.304 146.304 65.664 146.304 146.304-65.664 146.304-146.304 146.304zM877.696-27.392c-60.544 0-109.696 49.152-109.696 109.696s49.152 109.696 109.696 109.696 109.696-49.152 109.696-109.696-49.152-109.696-109.696-109.696zM146.304 594.304c-80.64 0-146.304-65.664-146.304-146.304s65.664-146.304 146.304-146.304 146.304 65.664 146.304 146.304-65.664 146.304-146.304 146.304zM146.304 338.304c-60.544 0-109.696 49.152-109.696 109.696s49.152 109.696 109.696 109.696 109.696-49.152 109.696-109.696-49.152-109.696-109.696-109.696zM512 594.304c-80.64 0-146.304-65.664-146.304-146.304s65.664-146.304 146.304-146.304 146.304 65.664 146.304 146.304-65.664 146.304-146.304 146.304zM512 338.304c-60.544 0-109.696 49.152-109.696 109.696s49.152 109.696 109.696 109.696 109.696-49.152 109.696-109.696-49.152-109.696-109.696-109.696zM877.696 594.304c-80.64 0-146.304-65.664-146.304-146.304s65.664-146.304 146.304-146.304 146.304 65.664 146.304 146.304-65.664 146.304-146.304 146.304zM877.696 338.304c-60.544 0-109.696 49.152-109.696 109.696s49.152 109.696 109.696 109.696 109.696-49.152 109.696-109.696-49.152-109.696-109.696-109.696zM146.304 960c-80.64 0-146.304-65.664-146.304-146.304s65.664-146.304 146.304-146.304 146.304 65.664 146.304 146.304-65.664 146.304-146.304 146.304zM146.304 704c-60.544 0-109.696 49.152-109.696 109.696s49.152 109.696 109.696 109.696 109.696-49.152 109.696-109.696-49.152-109.696-109.696-109.696zM512 960c-80.64 0-146.304-65.664-146.304-146.304s65.664-146.304 146.304-146.304 146.304 65.664 146.304 146.304-65.664 146.304-146.304 146.304zM512 704c-60.544 0-109.696 49.152-109.696 109.696s49.152 109.696 109.696 109.696 109.696-49.152 109.696-109.696-49.152-109.696-109.696-109.696zM877.696 667.392c80.64 0 146.304 65.664 146.304 146.304s-65.664 146.304-146.304 146.304-146.304-65.664-146.304-146.304 65.664-146.304 146.304-146.304zM877.696 923.392c60.544 0 109.696-49.152 109.696-109.696s-49.152-109.696-109.696-109.696-109.696 49.152-109.696 109.696 49.152 109.696 109.696 109.696z" />
<glyph unicode="&#xe912;" glyph-name="place" d="M512 960c-185.088 0-335.616-150.4-335.616-335.36 0-177.664 305.024-658.56 317.952-678.912 3.84-6.016 10.496-9.728 17.664-9.728s13.824 3.712 17.664 9.728c12.928 20.352 317.952 501.248 317.952 678.912 0 184.96-150.528 335.36-335.616 335.36zM512-3.712c-27.648 44.672-83.584 137.088-139.136 239.488-101.248 186.88-154.752 321.28-154.752 388.864 0 161.92 131.84 293.504 293.76 293.504s293.888-131.584 293.888-293.504c0-67.456-53.504-201.984-154.752-388.864-55.424-102.4-111.36-194.816-139.008-239.488zM512 801.024c-87.552 0-158.72-69.248-158.72-154.368s71.168-154.368 158.72-154.368 158.72 69.248 158.72 154.368c0 85.12-71.168 154.368-158.72 154.368zM512 534.016c-64.512 0-116.992 50.56-116.992 112.64s52.48 112.64 116.992 112.64 116.992-50.56 116.992-112.64c0-62.208-52.48-112.64-116.992-112.64z" />
<glyph unicode="&#xe913;" glyph-name="plant" d="M939.904 283.264v0l-73.344-24.576c-7.68 22.912-25.472 40.96-48.256 48.768-6.656 43.648-45.312 75.008-89.344 72.576-28.416 45.824-79.872 71.936-133.632 68.096-5.76 22.784-22.912 40.96-45.312 48.256 16 51.968 44.416 99.2 82.944 137.6 2.048-2.304 3.968-4.864 6.144-7.040 34.304-35.072 81.28-55.040 130.432-55.296 3.456 0 6.912 0.128 10.368 0.256 44.288 2.048 85.376 23.552 112.256 58.752 74.24 97.792 129.024 294.4 131.2 302.72 1.28 4.736 0.512 9.856-2.176 13.952s-7.168 6.912-12.032 7.552c-10.112 1.28-247.808 31.104-366.592-69.376-8.448-7.040-16-15.104-22.656-23.808-46.848 12.928-95.616 16.896-143.872 11.648-4.992-0.64-9.6-3.328-12.288-7.68-2.816-4.224-3.584-9.472-2.048-14.336 1.152-3.712 28.288-91.136 65.536-135.040 16.512-18.816 40.448-29.312 65.536-28.8 2.432 0 4.992 0.128 7.424 0.384 3.584-8.832 7.68-17.408 12.544-25.6-46.464-45.056-80-101.76-97.28-164.224-16.128-3.456-30.592-12.544-40.576-25.728-46.976 20.736-101.888 9.088-136.32-29.056-9.984 3.328-20.608 4.992-31.104 4.992-49.92-0.128-92.544-36.096-100.864-85.376h-31.616c-14.208 21.376-38.144 34.176-63.744 34.176h-34.432c-42.368 0-76.8-34.432-76.8-76.928v-307.456c0-42.496 34.432-76.8 76.8-76.928h34.176c17.408 0.128 34.176 6.144 47.616 17.024h443.904c25.088 0 49.664 6.912 71.040 19.968l319.744 195.2c27.776 16.896 38.4 51.968 24.704 81.536-13.568 29.44-47.232 44.032-78.080 33.792zM620.416 766.464c1.024 35.84 17.024 69.504 44.032 93.056 65.28 55.168 176.384 66.048 253.696 66.048 27.648 0 51.072-1.408 66.56-2.688-15.744-52.224-62.592-196.352-119.808-271.616-20.864-27.264-52.864-43.904-87.168-45.312-42.752-2.304-84.352 14.080-114.304 44.672-2.176 2.176-4.096 4.736-6.144 7.040 35.712 32.512 75.392 60.288 118.016 82.944 8.448 4.096 12.032 14.336 7.808 22.912-4.096 8.448-14.336 12.032-22.784 7.808-44.16-23.040-85.376-51.456-122.496-84.608-12.544 24.576-18.56 52.096-17.408 79.744zM586.368 768.128c-0.64-15.488 0.64-30.976 3.712-46.208-14.080 0.128-27.52 6.144-36.864 16.64-22.528 31.232-40.064 65.792-51.968 102.4 33.792 1.92 67.712-1.152 100.48-9.472-9.216-19.84-14.336-41.472-15.36-63.36zM153.6 12.928c0-23.552-19.072-42.624-42.624-42.752h-34.176c-23.552 0-42.624 19.072-42.624 42.752v307.456c0 23.552 19.072 42.624 42.624 42.752h34.176c23.552 0 42.624-19.072 42.624-42.752v-307.456zM307.2 414.336c10.112 0 20.096-2.432 29.184-6.784 7.424-3.584 16.384-1.28 21.12 5.376 26.24 36.736 76.672 46.464 114.688 22.272 4.352-2.688 9.6-3.456 14.464-1.792s8.704 5.376 10.624 10.112c4.864 12.8 16.768 21.376 30.464 21.888 0.512 0 0.896-0.128 1.408-0.128 0.384 0 0.768 0.128 1.28 0.256 18.048-0.512 32.512-15.104 32.896-33.152-0.128-0.512-0.256-2.048-0.256-2.56-0.256-5.248 1.92-10.368 5.888-13.952 3.968-3.456 9.344-4.864 14.592-3.84 7.424 1.536 14.848 2.304 22.4 2.304 41.728 0 79.872-23.296 98.688-60.544 3.456-6.912 11.136-10.496 18.688-8.96 14.976 3.072 30.464-0.64 42.368-10.24s19.072-23.936 19.328-39.168c0-0.512-0.128-1.152-0.128-1.664 0-8.448 6.272-15.744 14.72-16.896 16-2.432 29.44-13.696 34.432-29.056l-210.048-70.144c-5.248-1.792-10.752-2.688-16.256-2.688h-9.856c8.064 22.272 5.76 46.976-6.4 67.328l-1.536 2.56c-18.56 30.848-51.84 49.664-87.808 49.792h-89.216c-31.488 0-62.080 10.752-86.656 30.464-24.704 19.712-54.272 32.256-85.504 36.224 7.296 30.976 34.688 52.992 66.432 52.992zM989.312 216.832c-1.536-8.192-6.528-15.488-13.696-19.712l-319.872-194.944c-16-9.728-34.432-14.976-53.248-14.976h-419.456c3.072 8.192 4.608 16.896 4.736 25.6v307.584c-0.128 2.816-0.384 5.76-0.896 8.576h31.616c31.488 0 62.080-10.752 86.656-30.464 30.72-24.448 68.736-37.888 107.904-37.888h89.216c23.936-0.128 46.208-12.672 58.496-33.152l1.536-2.56c9.344-15.488 8.32-35.2-2.56-49.664h-103.68c-33.664 0-66.688-9.984-94.72-28.672l-12.544-8.32c-5.12-3.328-8.064-9.216-7.68-15.36s3.968-11.52 9.472-14.208c5.504-2.688 12.032-2.304 17.024 1.152l12.544 8.32c22.4 14.976 48.768 23.040 75.776 22.912h151.68c9.216 0 18.304 1.536 27.008 4.352l217.856 72.576c0.256 0 0.512-0.128 0.768-0.128 3.84 0.128 7.552 1.408 10.496 3.968l86.912 29.056c12.16 4.096 25.6-0.128 33.28-10.496 4.992-6.784 7.040-15.232 5.376-23.552zM390.016 346.368c9.216-1.92 18.304 4.096 20.096 13.312 2.432 11.904 12.928 20.48 25.088 20.48 5.504 0 10.88-1.792 15.36-5.12 7.552-5.632 18.176-4.096 23.808 3.456s4.096 18.176-3.328 23.936c-10.368 7.808-22.912 12.032-35.84 12.032-28.416-0.128-52.864-20.096-58.496-47.872-1.92-9.344 4.096-18.304 13.312-20.224zM572.672 340.736c5.504-2.688 11.904-2.304 17.024 1.024v0c10.112 6.656 23.552 5.248 32.256-3.328 3.968-3.968 6.528-8.96 7.296-14.464 1.152-8.448 8.448-14.72 16.896-14.72 0.768 0 1.664 0 2.432 0.128 9.344 1.28 15.872 9.984 14.464 19.328-2.944 20.352-16 37.632-34.688 46.080s-40.32 6.656-57.472-4.608c-5.12-3.328-8.064-9.216-7.68-15.36 0.384-5.888 3.968-11.392 9.472-14.080z" />
<glyph unicode="&#xe914;" glyph-name="pram" d="M304.64 242.176c-87.552 0-158.848-68.608-158.848-153.088 0-84.352 71.296-153.088 158.848-153.088s158.848 68.608 158.848 153.088c-0.128 84.352-71.296 153.088-158.848 153.088zM304.64-31.616c-69.12 0-125.184 54.144-125.184 120.704s56.192 120.704 125.184 120.704c68.992 0 125.184-54.144 125.184-120.704s-56.192-120.704-125.184-120.704zM865.152 242.176c-87.552 0-158.848-68.608-158.848-153.088 0-84.352 71.296-153.088 158.848-153.088s158.848 68.608 158.848 153.088c0 84.352-71.296 153.088-158.848 153.088zM865.152-31.616c-68.992 0-125.184 54.144-125.184 120.704s56.192 120.704 125.184 120.704c68.992 0 125.184-54.144 125.184-120.704s-56.064-120.704-125.184-120.704zM880.384 101.504l-593.664 691.712c-2.56 3.072-6.272 4.992-10.24 5.632l-256.896 40.448c-9.216 1.408-17.792-4.48-19.328-13.312s4.736-17.152 13.824-18.56l250.752-39.424 589.568-686.976c3.328-3.84 8.064-5.888 12.928-5.888 3.712 0 7.552 1.28 10.752 3.712 7.168 5.632 8.192 15.872 2.304 22.656zM590.976 429.824c-7.168 5.632-17.792 4.608-23.68-2.304l-274.944-324.48c-5.888-6.912-4.864-17.152 2.432-22.784 3.072-2.432 6.912-3.712 10.624-3.712 4.864 0 9.728 2.048 13.056 6.016l274.944 324.48c5.888 6.912 4.736 17.152-2.432 22.784zM152.96 619.904v-153.856c0-84.864 72.576-153.856 161.792-153.856h516.736c89.216 0 161.792 68.992 161.792 153.856v153.856h-840.32zM959.744 466.048c0-66.944-57.472-121.472-128.256-121.472h-516.608c-70.656 0-128.256 54.528-128.256 121.472v121.472h773.12v-121.472zM823.68 960h-284.032l105.984-357.504 32.384 8.832-93.824 316.288h239.488c68.864 0 124.8-55.296 124.8-123.264v-200.576h33.664v200.448c-0.128 85.888-71.168 155.776-158.464 155.776z" />
<glyph unicode="&#xe915;" glyph-name="search" d="M1018.368-31.232l-298.368 298.752c76.16 73.472 123.264 174.848 123.264 286.464 0 223.872-189.056 406.016-421.632 406.016s-421.632-182.144-421.632-406.016 189.184-406.016 421.632-406.016c102.016 0 195.712 35.072 268.672 93.44l299.008-299.52c3.968-3.968 9.216-5.888 14.464-5.888 4.992 0 9.984 1.792 13.952 5.376 8.064 7.424 8.32 19.712 0.64 27.392zM421.632 186.624c-210.304 0-381.44 164.736-381.44 367.36s171.136 367.36 381.44 367.36 381.44-164.736 381.44-367.36-171.136-367.36-381.44-367.36z" />
<glyph unicode="&#xe916;" glyph-name="sett" d="M657.664 222.592c-10.752 6.528-21.76 12.928-32.896 19.328 2.56 22.144 2.56 44.544 0 66.688 11.136 6.4 22.144 12.928 32.896 19.328 18.048 10.88 25.6 33.664 17.536 53.248 0 0 0 0 0 0l-23.552 56.832c-8.064 19.456-29.568 30.336-50.048 25.216-12.16-3.072-24.576-6.272-36.864-9.6-13.824 17.408-29.696 33.28-47.104 47.104 3.328 12.416 6.528 24.832 9.6 36.864 5.12 20.48-5.76 41.856-25.216 50.048l-56.832 23.552c-19.456 8.064-42.368 0.512-53.248-17.536-6.4-10.752-12.928-21.76-19.328-32.896-22.144 2.56-44.544 2.56-66.688 0-6.4 11.136-12.928 22.144-19.328 32.896-10.88 18.048-33.664 25.6-53.248 17.536l-56.832-23.552c-19.456-8.064-30.336-29.568-25.216-50.048 3.072-12.16 6.272-24.576 9.6-36.864-17.408-13.824-33.28-29.696-47.104-47.104-12.416 3.328-24.832 6.528-36.864 9.6-20.48 5.12-41.856-5.76-50.048-25.216l-23.68-56.96c-8.064-19.456-0.512-42.368 17.536-53.248 10.752-6.4 21.76-12.928 32.896-19.328-2.56-22.144-2.56-44.544 0-66.688-11.136-6.4-22.144-12.928-32.896-19.328-18.048-10.88-25.6-33.664-17.536-53.248l23.552-56.832c8.064-19.456 29.568-30.336 50.048-25.216 12.16 3.072 24.576 6.272 36.864 9.6 13.824-17.408 29.696-33.28 47.104-47.104-3.328-12.416-6.528-24.832-9.6-36.864-5.12-20.48 5.76-41.856 25.216-49.92l56.832-23.552c5.248-2.176 10.752-3.2 16.256-3.2 14.72 0 29.056 7.552 36.992 20.736 6.4 10.624 12.928 21.76 19.328 32.896 22.144-2.56 44.544-2.56 66.688 0 6.4-11.008 12.8-22.016 19.328-32.896 10.88-18.048 33.664-25.6 53.248-17.536l56.832 23.552c19.456 8.064 30.336 29.568 25.216 50.048-2.944 12.032-6.272 24.448-9.6 36.864 17.408 13.824 33.28 29.696 47.104 47.104 12.416-3.328 24.832-6.528 36.864-9.6 20.48-5.12 41.856 5.76 50.048 25.216l23.552 56.832c8.192 19.456 0.64 42.368-17.408 53.248zM610.176 132.352c-11.648 2.944-23.552 6.016-35.456 9.216-16.768 4.48-34.432-1.408-45.056-14.976-12.16-15.616-26.24-29.824-41.984-41.984-13.568-10.624-19.456-28.288-14.976-45.056 3.2-11.904 6.272-23.808 9.216-35.328l-52.224-21.632c-6.272 10.368-12.416 20.992-18.56 31.488-8.704 14.976-25.344 23.296-42.368 21.248-19.712-2.432-39.68-2.432-59.264 0-17.152 2.176-33.792-6.144-42.496-21.248-6.144-10.624-12.416-21.248-18.56-31.488l-52.224 21.632c2.944 11.648 6.016 23.552 9.216 35.456 4.48 16.768-1.408 34.432-14.976 45.056-15.616 12.16-29.824 26.24-41.984 41.984-10.624 13.568-28.288 19.456-45.056 14.976-11.904-3.2-23.68-6.272-35.328-9.216l-21.632 52.224c10.368 6.144 20.864 12.416 31.488 18.56 14.976 8.704 23.424 25.344 21.248 42.368-2.432 19.712-2.432 39.68 0 59.264 2.176 17.152-6.144 33.792-21.248 42.496-10.624 6.144-21.248 12.288-31.488 18.56l21.632 52.224c11.648-2.944 23.552-6.016 35.456-9.216 16.768-4.48 34.432 1.408 45.056 14.976 12.16 15.616 26.24 29.824 41.984 41.984 13.568 10.624 19.456 28.288 14.976 45.056-3.2 11.776-6.272 23.68-9.216 35.328l52.224 21.632c6.144-10.24 12.416-20.864 18.56-31.488 8.704-14.976 25.344-23.424 42.496-21.248 19.712 2.432 39.552 2.432 59.264 0 17.152-2.176 33.792 6.144 42.496 21.248 6.144 10.624 12.288 21.248 18.56 31.488l52.224-21.632c-2.944-11.648-6.016-23.552-9.216-35.456-4.48-16.768 1.408-34.432 14.976-45.056 15.616-12.16 29.824-26.24 41.984-41.984 10.624-13.568 28.288-19.456 45.056-14.976 11.776 3.2 23.68 6.272 35.328 9.216l21.632-52.224c-10.368-6.144-20.864-12.416-31.488-18.56-14.976-8.704-23.424-25.344-21.248-42.496 2.432-19.712 2.432-39.552 0-59.264-2.176-17.152 6.144-33.792 21.248-42.496 10.624-6.144 21.248-12.288 31.488-18.56l-21.76-52.096zM483.584 334.976c0 0 0 0 0 0-33.024 79.616-124.544 117.504-204.16 84.608-79.616-33.024-117.504-124.544-84.48-204.16 16-38.528 45.952-68.608 84.48-84.608 19.328-7.936 39.552-12.032 59.776-12.032s40.448 3.968 59.776 12.032c79.616 33.024 117.504 124.544 84.608 204.16zM381.44 173.184c-27.264-11.264-57.216-11.264-84.48 0s-48.512 32.512-59.776 59.776c-23.296 56.192 3.456 120.96 59.776 144.256 13.824 5.76 28.032 8.448 42.112 8.448 43.392 0 84.48-25.728 102.144-68.096 23.296-56.32-3.584-121.088-59.776-144.384zM993.152 758.144c-7.936 1.152-16 2.304-24.192 3.456-4.096 13.696-9.6 27.008-16.384 39.68 4.992 6.528 9.984 13.056 14.72 19.584 10.624 14.336 9.088 34.688-3.584 47.232l-31.616 31.616c-12.672 12.672-32.896 14.208-47.232 3.584-6.528-4.736-13.056-9.728-19.584-14.72-12.672 6.784-25.984 12.288-39.68 16.384-1.152 8.192-2.304 16.256-3.456 24.192-2.688 17.536-18.048 30.848-35.968 30.848h-44.672c-17.792 0-33.28-13.312-35.968-30.848-1.152-7.936-2.304-16-3.456-24.192-13.696-4.096-27.008-9.6-39.68-16.384-6.528 4.992-13.056 9.984-19.584 14.72-14.336 10.624-34.688 9.088-47.232-3.584l-31.616-31.616c-12.672-12.672-14.208-32.896-3.584-47.232 4.736-6.4 9.728-13.056 14.72-19.584-6.784-12.672-12.288-25.984-16.384-39.68-8.192-1.152-16.256-2.304-24.192-3.456-17.664-2.688-30.848-18.048-30.848-35.968v-44.672c0-17.792 13.312-33.28 30.848-35.968 7.936-1.152 16-2.304 24.192-3.456 4.096-13.696 9.6-27.008 16.384-39.68-4.992-6.528-9.984-13.056-14.72-19.584-10.624-14.336-9.088-34.688 3.584-47.232l31.616-31.616c12.672-12.672 32.896-14.208 47.232-3.584 6.528 4.736 13.056 9.728 19.584 14.72 12.672-6.784 25.984-12.288 39.68-16.384 1.152-8.192 2.304-16.256 3.456-24.192 2.688-17.664 18.048-30.848 35.968-30.848h44.672c17.792 0 33.28 13.312 35.968 30.848 1.152 7.936 2.304 16 3.456 24.192 13.696 4.096 27.008 9.6 39.68 16.384 6.528-4.992 13.056-9.984 19.584-14.72 14.336-10.624 34.688-9.088 47.232 3.584l31.616 31.616c12.672 12.672 14.208 32.896 3.584 47.232-4.736 6.4-9.728 13.056-14.72 19.584 6.784 12.672 12.288 25.856 16.384 39.68 8.192 1.152 16.256 2.304 24.192 3.456 17.664 2.688 30.848 18.048 30.848 35.968v44.672c0 17.92-13.312 33.28-30.848 35.968zM980.48 683.776c-7.168-1.024-14.464-2.048-21.888-3.072-14.592-1.92-26.496-12.16-30.336-26.24-3.712-13.44-9.088-26.496-16-38.656-7.168-12.672-6.144-28.416 2.816-40.064 4.48-5.888 8.96-11.776 13.312-17.536l-22.784-22.784c-5.888 4.352-11.776 8.832-17.664 13.312-11.648 8.96-27.392 10.112-40.064 2.816-12.16-6.912-25.216-12.288-38.656-16-14.080-3.84-24.448-15.744-26.24-30.336-0.896-7.296-1.92-14.72-3.072-21.888h-32.256c-1.024 7.168-2.048 14.464-3.072 21.888-1.92 14.592-12.16 26.496-26.24 30.336-13.44 3.712-26.496 9.088-38.656 16-12.672 7.168-28.416 6.144-40.064-2.816-5.888-4.48-11.776-8.96-17.664-13.312l-22.656 22.656c4.352 5.888 8.832 11.776 13.312 17.664 8.96 11.648 10.112 27.392 2.816 40.064-6.912 12.16-12.288 25.216-16 38.656-3.84 14.080-15.744 24.448-30.336 26.24-7.296 1.024-14.72 1.92-21.888 3.072v32.256c7.168 1.024 14.464 2.048 21.888 3.072 14.592 1.92 26.496 12.16 30.336 26.24 3.712 13.44 9.088 26.496 16 38.656 7.168 12.672 6.144 28.416-2.816 40.064-4.48 5.888-8.96 11.776-13.312 17.664l22.784 22.656c5.888-4.352 11.776-8.832 17.664-13.312 11.648-8.96 27.392-10.112 40.064-2.816 12.16 6.912 25.216 12.288 38.656 16 14.080 3.84 24.448 15.744 26.24 30.336 1.024 7.296 1.92 14.72 3.072 21.888h32.256c1.024-7.168 2.048-14.464 3.072-21.888 1.92-14.592 12.16-26.496 26.24-30.336 13.44-3.712 26.496-9.088 38.656-16 12.672-7.168 28.416-6.144 40.064 2.816 5.888 4.48 11.776 8.96 17.664 13.312l22.784-22.784c-4.352-5.888-8.832-11.776-13.312-17.664-8.96-11.648-10.112-27.392-2.816-40.064 6.912-12.16 12.288-25.216 16-38.656 3.84-14.080 15.744-24.448 30.336-26.24 7.296-1.024 14.72-1.92 21.888-3.072l-0.128-32.128zM763.904 792.704c-51.2 0-92.8-41.6-92.8-92.8s41.6-92.8 92.8-92.8c51.2 0 92.8 41.6 92.8 92.8 0 51.072-41.728 92.8-92.8 92.8zM763.904 648.32c-28.416 0-51.584 23.168-51.584 51.584s23.168 51.584 51.584 51.584c28.416-0.128 51.456-23.168 51.456-51.584s-23.040-51.584-51.456-51.584z" />
<glyph unicode="&#xe917;" glyph-name="settings" d="M132.736 704c66.688 0 121.984 47.744 131.2 109.696h741.12c10.496 0 18.944 8.192 18.944 18.304s-8.448 18.304-18.944 18.304h-741.12c-9.216 61.952-64.512 109.696-131.2 109.696-73.216 0-132.736-57.472-132.736-128s59.52-128 132.736-128zM132.736 923.392c52.224 0 94.848-40.96 94.848-91.392s-42.496-91.392-94.848-91.392-94.848 40.96-94.848 91.392 42.624 91.392 94.848 91.392zM891.264 192c-66.688 0-121.984-47.744-131.2-109.696h-741.12c-10.496 0-18.944-8.192-18.944-18.304s8.448-18.304 18.944-18.304h741.12c9.216-61.952 64.512-109.696 131.2-109.696 73.216 0 132.736 57.472 132.736 128s-59.52 128-132.736 128zM891.264-27.392c-52.224 0-94.848 40.96-94.848 91.392s42.496 91.392 94.848 91.392c52.224 0 94.848-40.96 94.848-91.392s-42.624-91.392-94.848-91.392zM1005.056 466.304h-353.28c-7.552 65.92-65.536 117.248-135.808 117.248s-128.384-51.456-135.808-117.248h-361.216c-10.496 0-18.944-8.192-18.944-18.304s8.448-18.304 18.944-18.304h362.368c10.88-62.208 67.072-109.696 134.656-109.696s123.648 47.488 134.528 109.696h354.56c10.496 0 18.944 8.192 18.944 18.304s-8.448 18.304-18.944 18.304zM515.968 356.608c-54.4 0-98.688 42.752-98.688 95.232s44.288 95.232 98.688 95.232 98.688-42.752 98.688-95.232-44.288-95.232-98.688-95.232z" />
<glyph unicode="&#xe918;" d="M504.32 270.464c10.24 13.952 10.24 37.12 0 51.584-9.856 13.952-26.368 13.952-36.352 0l-186.112-261.632v863.488c0 20.096-11.392 36.096-25.728 36.096s-26.112-16-26.112-36.096v-863.488l-185.6 261.632c-10.24 13.952-26.752 13.952-36.736 0-10.24-14.464-10.24-37.632 0-51.584l230.144-323.584c9.984-14.464 26.368-14.464 36.352 0l230.144 323.584z" />
<glyph unicode="&#xe919;" d="M1024 825.6c0-10.624-8.576-19.2-19.2-19.2h-409.6c-10.624 0-19.2 8.576-19.2 19.2v12.8c0 10.624 8.576 19.2 19.2 19.2h409.6c10.624 0 19.2-8.576 19.2-19.2v-12.8z" />
<glyph unicode="&#xe91a;" d="M960 569.6c0-10.624-8.576-19.2-19.2-19.2h-345.6c-10.624 0-19.2 8.576-19.2 19.2v12.8c0 10.624 8.576 19.2 19.2 19.2h345.6c10.624 0 19.2-8.576 19.2-19.2v-12.8z" />
<glyph unicode="&#xe91b;" d="M896 313.6c0-10.624-8.576-19.2-19.2-19.2h-281.6c-10.624 0-19.2 8.576-19.2 19.2v12.8c0 10.624 8.576 19.2 19.2 19.2h281.6c10.624 0 19.2-8.576 19.2-19.2v-12.8z" />
<glyph unicode="&#xe91c;" d="M832 57.6c0-10.624-8.576-19.2-19.2-19.2h-217.6c-10.624 0-19.2 8.576-19.2 19.2v12.8c0 10.624 8.576 19.2 19.2 19.2h217.6c10.624 0 19.2-8.576 19.2-19.2v-12.8z" />
<glyph unicode="&#xe91d;" glyph-name="table" d="M1003.008 268.544h-982.016c-11.648 0-20.992 7.040-20.992 15.616v209.408c0 35.328 38.912 64 86.656 64h850.688c47.872 0 86.656-28.672 86.656-64v-209.408c0-8.704-9.472-15.616-20.992-15.616zM41.984 299.648h940.032v193.92c0 18.176-20.096 33.024-44.672 33.024h-850.688c-24.576 0-44.672-14.848-44.672-33.024v-193.92zM937.216 13.952h-850.56c-47.744 0-86.656 28.672-86.656 64v209.536c0 8.576 9.344 15.488 20.992 15.488h982.016c11.648 0 20.992-6.912 20.992-15.488v-209.536c0-35.328-38.912-64-86.784-64zM41.984 272v-194.048c0-18.176 20.096-33.024 44.672-33.024h850.688c24.704 0 44.672 14.848 44.672 33.024v194.048h-940.032zM156.416-64c-2.688 0-5.376 0.384-8.064 1.152-10.752 3.2-15.744 12.288-11.392 20.224l43.648 77.952c4.48 7.936 16.768 11.776 27.392 8.448 10.752-3.2 15.744-12.288 11.392-20.224l-43.648-77.952c-3.328-6.016-11.136-9.6-19.328-9.6zM867.584-64c-8.192 0-16 3.584-19.456 9.6l-43.648 77.952c-4.352 7.936 0.64 17.024 11.392 20.224 10.752 3.328 23.040-0.512 27.392-8.448l43.648-77.952c4.352-7.936-0.64-17.024-11.392-20.224-2.56-0.768-5.248-1.152-7.936-1.152zM561.024 429.824h-98.176c-11.648 0-20.992 6.912-20.992 15.488s9.344 15.488 20.992 15.488h98.176c11.648 0 20.992-6.912 20.992-15.488s-9.344-15.488-20.992-15.488zM561.024 175.232h-98.176c-11.648 0-20.992 6.912-20.992 15.488s9.344 15.488 20.992 15.488h98.176c11.648 0 20.992-6.912 20.992-15.488s-9.344-15.488-20.992-15.488zM543.488 526.592h-279.168c-11.648 0-20.992 6.912-20.992 15.488v62.848c0 8.576 9.344 15.488 20.992 15.488h279.168c11.648 0 20.992-6.912 20.992-15.488v-62.848c0-8.448-9.472-15.488-20.992-15.488zM285.184 557.696h237.184v31.872h-237.184v-31.872zM588.288 762.496h-368.896c-6.656 0-13.056 2.304-17.024 6.4-3.968 3.968-4.992 9.216-3.072 13.824l72.064 166.4c2.688 6.4 10.88 10.752 19.968 10.752h224.768c9.216 0 17.152-4.352 19.968-10.752l72.064-166.4c2.048-4.736 0.896-9.856-3.072-13.824-3.84-3.968-10.112-6.4-16.768-6.4zM248.064 793.6h311.424l-58.624 135.424h-194.176l-58.624-135.424zM403.84 589.44c-11.648 0-20.992 6.912-20.992 15.488v173.184c0 8.576 9.344 15.488 20.992 15.488s20.992-6.912 20.992-15.488v-173.056c0-8.576-9.344-15.616-20.992-15.616zM512 709.248c-11.648 0-20.992 6.912-20.992 15.488v53.248c0 8.576 9.344 15.488 20.992 15.488s20.992-6.912 20.992-15.488v-53.248c0-8.448-9.472-15.488-20.992-15.488z" />
<glyph unicode="&#xe91e;" glyph-name="tools" d="M1021.824 174.080c-8.576 29.184-24.064 55.68-45.056 77.184-33.408 34.688-78.72 54.144-126.080 54.016-24.192 0-48.128-5.12-70.272-14.848l-175.36 181.248 232.832 238.72 55.168 1.664c6.656 0.256 12.8 3.968 16.128 9.856l78.976 137.088c4.608 7.936 3.328 18.048-2.944 24.576l-68.224 70.528c-6.272 6.528-16.128 7.808-23.808 3.072l-132.608-81.664c-5.76-3.456-9.344-9.856-9.6-16.768l-1.536-56.832-232.192-239.616-159.232 164.864c16.768 100.352-48.384 195.584-145.408 212.992-44.928 7.936-91.136-2.176-129.152-28.288-8.96-6.272-11.264-18.816-5.248-27.904 1.664-2.56 3.968-4.736 6.528-6.272l88.448-50.944c19.456-11.52 23.424-45.696 7.552-74.752-15.744-29.056-45.952-43.904-65.664-32.64l-81.792 45.824c-9.472 5.376-21.248 1.792-26.496-7.936-1.792-3.328-2.56-7.168-2.432-11.008 6.144-101.632 90.752-178.816 189.056-172.416 20.352 1.28 40.192 6.272 58.88 14.464l144.896-149.888-62.72-64.896-14.208 14.464c-15.744 15.616-40.576 15.616-56.32 0l-19.456-20.096c-14.848-14.976-15.744-39.296-2.176-55.424l-230.272-237.696c-15.488-15.36-16.128-40.832-1.152-56.96 0.384-0.384 0.768-0.896 1.152-1.28l65.792-68.096c14.848-16.128 39.552-16.64 55.040-1.28 0.384 0.384 0.768 0.768 1.152 1.28l230.784 238.336c15.616-14.080 39.168-13.184 53.504 2.176l19.456 20.096c15.488 15.36 16.128 40.832 1.152 56.96-0.384 0.384-0.768 0.896-1.152 1.28l-14.208 14.72 62.336 65.92 188.928-195.328c-16.384-100.352 49.152-195.456 146.176-212.352 57.472-9.984 116.096 9.728 156.928 52.736 7.168 8.32 6.4 20.992-1.536 28.416-2.048 1.92-4.48 3.328-7.168 4.224l-109.696 30.464c-10.752 3.584-19.2 12.16-23.040 23.168-5.76 15.232-6.4 31.872-1.92 47.488 8.192 31.616 34.048 54.144 55.936 48.128l108.544-30.208c1.792-0.256 3.456-0.256 5.248 0 10.752-0.128 19.584 8.832 19.712 19.84 0 3.328-0.768 6.656-2.176 9.6zM782.080 779.648c3.456 3.712 5.504 8.576 5.632 13.696l1.536 53.76 110.464 67.84 46.72-48.384-64.256-113.92-52.992-2.048c-4.992-0.128-9.728-2.176-13.184-5.888l-237.696-245.376-33.536 34.688 237.312 245.632zM106.496-22.912l-66.816 68.608 231.552 238.848 33.536-34.688 32-34.304-230.272-238.464zM391.424 218.752l-25.728 26.752-9.984 10.24-81.792 85.248 19.456 20.096 116.864-122.496-18.816-19.84zM395.136 310.528l-33.536 34.688 62.72 64.896 33.536-34.688-62.72-64.896zM900.096 213.76c-5.76 1.664-11.776 2.432-17.664 2.432-42.496-3.584-77.568-35.712-85.888-78.976-6.656-24.192-5.376-50.048 3.712-73.472 8.32-22.528 26.496-39.68 48.896-46.336l72.448-20.096c-66.048-40.704-151.552-18.304-190.976 50.048-18.432 32.128-24.192 70.4-15.872 106.752 1.536 6.784-0.512 13.824-5.248 18.688l-439.040 454.4c-6.272 6.016-15.616 7.168-23.040 2.816-20.096-11.008-42.496-16.768-65.28-16.768-58.624 0-110.976 37.888-130.944 94.848l44.416-25.6c10.368-6.016 22.016-9.088 33.92-9.088 36.096 2.176 68.352 23.936 84.736 57.216 26.496 48.896 16.128 107.136-22.912 129.664l-56.704 33.28c72.448 26.752 152.192-12.288 178.048-87.168 8.96-25.984 10.496-54.144 4.48-81.024-1.536-6.784 0.512-13.824 5.248-18.688l440.064-454.784c6.016-6.272 15.232-7.68 22.784-3.584 20.096 11.008 42.496 16.768 65.28 16.768 49.28 0 94.976-26.88 119.936-70.912l-70.4 19.584z" />
<glyph unicode="&#xe91f;" glyph-name="transport" d="M512 499.2c-56.448 0-102.4-45.952-102.4-102.4s45.952-102.4 102.4-102.4 102.4 45.952 102.4 102.4-45.952 102.4-102.4 102.4zM512 328.576c-37.632 0-68.224 30.592-68.224 68.224s30.592 68.224 68.224 68.224c37.632 0 68.224-30.592 68.224-68.224s-30.592-68.224-68.224-68.224zM512 960c-282.368 0-512-229.632-512-512s229.632-512 512-512 512 229.632 512 512-229.632 512-512 512zM512-29.824c-263.552 0-477.824 214.272-477.824 477.824s214.272 477.824 477.824 477.824 477.824-214.272 477.824-477.824-214.272-477.824-477.824-477.824zM512 857.6c-225.792 0-409.6-183.808-409.6-409.6s183.808-409.6 409.6-409.6 409.6 183.808 409.6 409.6-183.808 409.6-409.6 409.6zM512 823.424c159.488 0 296.064-100.096 350.336-240.64l-127.872-42.624c-43.904-14.592-91.264-12.288-133.504 6.528-56.576 25.088-121.344 25.088-177.92 0l-6.528-2.816c-38.4-17.152-82.048-20.608-122.752-9.728l-136.704 36.48c51.072 146.944 190.848 252.8 354.944 252.8zM136.576 448c0 3.456 0.128 6.912 0.256 10.368l11.904-3.968c168.32-56.064 287.232-203.136 308.48-377.856-181.248 26.752-320.64 183.040-320.64 371.456zM512 72.576c-6.784 0-13.568 0.256-20.224 0.512-20.224 191.104-149.12 352.64-332.288 413.696l-20.096 6.656c1.792 15.104 4.48 29.824 8.064 44.288l137.6-36.736c18.432-4.864 37.376-7.424 56.32-7.424 30.464 0 60.928 6.272 89.088 18.816l6.528 2.816c47.744 21.248 102.4 21.248 150.144 0 50.048-22.272 106.24-24.96 158.208-7.68l127.872 42.624c5.248-18.432 9.088-37.504 11.52-56.96l-20.096-6.656c-183.296-61.056-312.192-222.592-332.288-413.696-6.784-0.128-13.568-0.256-20.352-0.256zM566.912 76.544c21.12 174.72 140.16 321.792 308.48 377.856l11.904 3.968c0.128-3.456 0.256-6.912 0.256-10.368-0.128-188.416-139.52-344.704-320.64-371.456z" />
<glyph unicode="&#xe920;" glyph-name="type-of-deal" d="M504.32 270.464c10.24 13.952 10.24 37.12 0 51.584-9.856 13.952-26.368 13.952-36.352 0l-186.112-261.632v863.488c0 20.096-11.392 36.096-25.728 36.096s-26.112-16-26.112-36.096v-863.488l-185.6 261.632c-10.24 13.952-26.752 13.952-36.736 0-10.24-14.464-10.24-37.632 0-51.584l230.144-323.584c9.984-14.464 26.368-14.464 36.352 0l230.144 323.584zM519.68 625.536c-10.24-13.952-10.24-37.12 0-51.584 9.856-13.952 26.368-13.952 36.352 0l186.112 261.632v-863.488c0-20.096 11.392-36.096 25.728-36.096s26.112 16 26.112 36.096v863.488l185.728-261.632c10.24-13.952 26.752-13.952 36.736 0 10.24 14.464 10.24 37.632 0 51.584l-230.272 323.584c-9.984 14.464-26.368 14.464-36.352 0l-230.144-323.584z" />
<glyph unicode="&#xe921;" glyph-name="user" d="M1024 448c0 282.368-229.632 512-512 512s-512-229.632-512-512c0-149.12 64.128-283.52 166.144-377.216l-0.512-0.384 16.64-13.952c1.024-0.896 2.304-1.664 3.328-2.56 8.832-7.296 17.92-14.208 27.264-20.992 3.072-2.176 6.016-4.352 9.088-6.528 9.984-6.912 20.096-13.312 30.592-19.456 2.304-1.28 4.608-2.688 6.912-3.968 11.392-6.528 23.040-12.672 34.944-18.304 0.896-0.384 1.792-0.768 2.688-1.152 38.912-18.048 80.384-31.36 123.776-39.168 1.152-0.256 2.304-0.384 3.456-0.64 13.44-2.304 27.136-4.224 40.96-5.376 1.664-0.128 3.328-0.256 4.992-0.384 13.696-1.152 27.648-1.92 41.728-1.92 13.952 0 27.648 0.768 41.344 1.792 1.792 0.128 3.456 0.256 5.248 0.384 13.696 1.28 27.264 3.072 40.576 5.376 1.152 0.256 2.304 0.384 3.456 0.64 42.752 7.68 83.712 20.608 122.112 38.272 1.408 0.64 2.816 1.28 4.224 1.92 11.52 5.376 22.656 11.264 33.664 17.408 2.688 1.536 5.504 3.072 8.192 4.736 9.984 5.888 19.84 12.032 29.44 18.56 3.456 2.304 6.784 4.864 10.24 7.296 8.192 5.888 16.256 11.904 23.936 18.304 1.792 1.408 3.584 2.56 5.248 4.096l17.024 14.208-0.512 0.384c103.040 93.696 167.808 228.736 167.808 378.624zM37.248 448c0 261.76 212.992 474.752 474.752 474.752s474.752-212.992 474.752-474.752c0-141.056-61.952-267.904-159.872-354.944-5.504 3.84-11.008 7.168-16.64 9.984l-157.696 78.848c-14.208 7.040-22.912 21.248-22.912 37.12v55.040c3.712 4.48 7.552 9.6 11.52 15.232 20.352 28.8 36.736 60.928 48.768 95.36 23.552 11.264 38.784 34.688 38.784 61.184v66.048c0 16.128-5.888 31.744-16.512 44.16v86.912c1.024 9.6 4.352 64.256-35.072 109.184-34.304 39.168-89.856 59.008-165.12 59.008s-130.816-19.84-165.12-59.008c-39.424-44.928-35.968-99.456-35.072-109.184v-86.912c-10.624-12.288-16.512-27.904-16.512-44.16v-66.048c0-20.48 9.216-39.68 24.96-52.48 15.104-59.136 46.080-103.808 57.6-118.912v-53.888c0-15.232-8.32-29.184-21.632-36.48l-147.2-80.256c-4.736-2.56-9.344-5.504-13.952-8.832-96.896 86.912-157.824 212.992-157.824 353.024zM790.528 63.872c-6.528-4.736-13.184-9.344-19.84-13.696-3.072-2.048-6.144-3.968-9.344-6.016-8.832-5.376-17.664-10.624-26.88-15.488-2.048-1.024-4.096-2.048-6.016-3.072-20.992-10.752-42.624-19.968-64.896-27.52-0.768-0.256-1.536-0.512-2.304-0.768-11.648-3.84-23.552-7.296-35.456-10.24 0 0-0.128 0-0.128 0-12.032-2.944-24.32-5.504-36.608-7.424-0.384 0-0.64-0.128-1.024-0.128-11.52-1.92-23.168-3.2-34.944-4.224-2.048-0.128-4.096-0.256-6.272-0.512-11.52-0.896-23.168-1.408-34.816-1.408-11.776 0-23.552 0.64-35.328 1.408-2.048 0.128-4.096 0.256-6.016 0.512-11.776 1.024-23.552 2.432-35.2 4.352-0.512 0.128-1.024 0.128-1.536 0.256-24.576 4.096-48.896 10.112-72.448 18.048-0.768 0.256-1.408 0.512-2.176 0.768-11.648 3.968-23.296 8.448-34.688 13.312-0.128 0-0.128 0.128-0.256 0.128-10.752 4.608-21.376 9.728-31.744 15.232-1.408 0.768-2.688 1.408-4.096 2.048-9.472 5.12-18.816 10.624-28.032 16.256-2.688 1.664-5.376 3.456-8.064 5.248-8.448 5.504-16.768 11.264-24.96 17.408-0.896 0.64-1.664 1.28-2.432 1.92 0.64 0.384 1.152 0.64 1.792 1.024l147.2 80.256c25.344 13.824 41.088 40.32 41.088 69.12v67.072l-4.224 5.12c-0.384 0.512-40.704 49.408-55.936 115.712l-1.664 7.424-6.4 4.096c-8.96 5.76-14.336 15.488-14.336 25.856v66.048c0 8.704 3.712 16.768 10.368 22.784l6.144 5.504v103.68l-0.128 2.432c0 0.384-5.504 45.184 25.984 81.152 26.88 30.72 73.088 46.208 137.088 46.208 63.744 0 109.824-15.488 136.832-45.952 31.488-35.584 26.368-81.152 26.368-81.536l-0.128-106.112 6.144-5.504c6.656-6.016 10.368-14.080 10.368-22.784v-66.048c0-13.312-9.088-25.344-22.016-29.312l-9.216-2.816-2.944-9.216c-11.008-34.176-26.624-65.664-46.464-93.696-4.864-6.912-9.6-13.056-13.696-17.664l-4.608-5.248v-68.864c0-29.952 16.64-56.96 43.52-70.4l157.44-78.848c1.024-0.512 2.048-1.024 2.944-1.536-1.92-1.536-3.968-2.944-6.016-4.352z" />
<glyph unicode="&#xe922;" glyph-name="work" d="M826.624 298.496c39.168 25.216 65.28 70.656 65.28 122.496v109.824c0 71.552-49.92 131.072-114.816 141.696v106.112c0 8.704-6.656 15.744-14.976 15.744h-160.128v63.36c0 56.32-43.392 102.272-96.768 102.272h-233.216c-53.376 0-96.768-45.824-96.768-102.272v-63.36h-160.256c-8.32 0-14.976-7.040-14.976-15.744v-560.64c0-8.704 6.656-15.744 14.976-15.744h131.84c8.32 0 14.976 7.040 14.976 15.744s-6.656 15.744-14.976 15.744h-116.864v318.976c25.984-41.6 66.944-72.064 115.2-82.432v-17.28c0-27.904 21.504-50.56 47.872-50.56s47.872 22.656 47.872 50.56v13.44h115.456c8.32 0 14.976 7.040 14.976 15.744s-6.656 15.744-14.976 15.744h-115.456v38.656c0 8.704-6.656 15.744-14.976 15.744h-65.792c-8.32 0-14.976-7.040-14.976-15.744v-34.048c-66.816 17.28-115.2 81.152-115.2 155.264v105.088h717.184v-88.832c-0.896 0-1.792-0.128-2.688-0.256-1.024-0.128-2.048-0.128-3.072-0.256-1.28-0.128-2.432-0.256-3.712-0.512-1.024-0.128-1.92-0.256-2.944-0.384-1.28-0.256-2.432-0.512-3.712-0.64-0.896-0.128-1.92-0.384-2.816-0.512-1.28-0.256-2.56-0.64-3.84-0.896-0.896-0.256-1.792-0.384-2.688-0.64-1.28-0.384-2.688-0.768-3.968-1.152-0.768-0.256-1.536-0.512-2.304-0.768-1.536-0.512-2.944-1.024-4.48-1.536-0.64-0.256-1.152-0.384-1.792-0.64-4.096-1.536-8.064-3.328-12.032-5.376-0.384-0.256-0.768-0.384-1.152-0.64-1.536-0.768-3.072-1.664-4.608-2.432-0.64-0.384-1.152-0.768-1.792-1.024-1.28-0.768-2.56-1.536-3.84-2.304-0.64-0.384-1.28-0.896-2.048-1.28-1.152-0.768-2.304-1.536-3.456-2.304-0.64-0.512-1.408-1.024-2.048-1.536-1.024-0.768-2.176-1.536-3.2-2.432-0.64-0.512-1.408-1.152-2.048-1.664-1.024-0.768-2.048-1.664-2.944-2.432-0.64-0.64-1.408-1.28-2.048-1.792-0.896-0.896-1.92-1.664-2.816-2.56-0.64-0.64-1.28-1.28-2.048-1.92-0.896-0.896-1.792-1.792-2.688-2.688-0.64-0.64-1.28-1.408-1.92-2.048-0.896-0.896-1.664-1.792-2.56-2.816-0.64-0.768-1.28-1.408-1.92-2.176-0.768-0.896-1.536-1.92-2.304-2.816-0.64-0.768-1.152-1.536-1.792-2.304-0.768-1.024-1.536-1.92-2.176-2.944-0.64-0.768-1.152-1.664-1.664-2.432-0.64-1.024-1.408-2.048-2.048-3.072-0.512-0.896-1.024-1.664-1.664-2.56-0.64-1.024-1.28-2.048-1.92-3.2-0.512-0.896-1.024-1.792-1.536-2.56-0.64-1.024-1.152-2.176-1.792-3.2-0.512-0.896-0.896-1.792-1.408-2.688-0.512-1.152-1.152-2.176-1.664-3.328-0.384-0.896-0.896-1.792-1.28-2.816-0.512-1.152-1.024-2.304-1.408-3.456-0.384-0.896-0.768-1.92-1.152-2.816-0.512-1.152-0.896-2.304-1.28-3.456-0.384-1.024-0.768-1.92-1.024-2.944-0.384-1.152-0.768-2.432-1.152-3.584-0.256-1.024-0.64-1.92-0.896-2.944-0.384-1.28-0.64-2.432-1.024-3.712-0.256-1.024-0.512-1.92-0.768-2.944-0.256-1.28-0.512-2.56-0.896-3.84-0.256-1.024-0.384-1.92-0.64-2.944-0.256-1.28-0.512-2.688-0.64-3.968-0.128-1.024-0.384-1.92-0.512-2.944-0.256-1.408-0.384-2.816-0.512-4.224-0.128-0.896-0.256-1.792-0.384-2.816-0.128-1.536-0.256-3.2-0.384-4.736 0-0.768-0.128-1.536-0.128-2.432-0.128-2.432-0.128-4.864-0.128-7.168v-30.848c-6.912-1.152-13.952-1.92-20.992-2.048v38.656c0 8.704-6.656 15.744-14.976 15.744h-65.792c-8.32 0-14.976-7.040-14.976-15.744v-38.656h-97.536c-8.32 0-14.976-7.040-14.976-15.744s6.656-15.744 14.976-15.744h97.536v-13.44c0-27.904 21.504-50.56 47.872-50.56s47.872 22.656 47.872 50.56v13.44c7.040 0.128 13.952 0.768 20.992 1.792v-47.104c0-2.432 0-4.736 0.128-7.168 0-0.896 0.128-1.792 0.128-2.816 0.128-1.408 0.128-2.816 0.256-4.352 0.128-1.152 0.256-2.304 0.384-3.456s0.256-2.432 0.384-3.584c0.128-1.28 0.384-2.56 0.64-3.712 0.128-1.024 0.384-2.048 0.512-3.072 0.256-1.408 0.512-2.688 0.896-4.096 0.256-0.896 0.384-1.792 0.64-2.688 0.384-1.408 0.768-2.816 1.152-4.352 0.256-0.768 0.384-1.536 0.64-2.304 0.384-1.536 0.896-3.072 1.408-4.608 0.256-0.64 0.384-1.28 0.64-1.792 0.512-1.664 1.152-3.328 1.792-4.992 0.128-0.384 0.256-0.896 0.512-1.28 0.768-1.792 1.408-3.712 2.304-5.504 0.128-0.256 0.128-0.384 0.256-0.64 11.392-25.856 29.824-47.616 52.736-62.336-41.6-12.416-79.36-35.072-110.464-64.64h-378.112c-8.32 0-14.976-7.040-14.976-15.744s6.656-15.744 14.976-15.744h349.952c-36.352-46.72-58.24-104.832-58.24-166.784v-83.584c0-8.704 6.656-15.744 14.976-15.744h113.92c8.32 0 14.976 7.040 14.976 15.744s-6.656 15.744-14.976 15.744h-98.944v67.84c0 63.104 25.472 123.392 71.808 169.728 0.512 0.512 0.896 0.896 1.408 1.408 1.792 1.792 3.584 3.456 5.504 5.248 0.128 0.128 0.256 0.256 0.384 0.384 3.584 3.328 7.296 6.656 11.136 9.728 0.64 0.512 1.408 1.152 2.048 1.664 1.024 0.768 2.048 1.664 3.072 2.432s2.048 1.536 3.072 2.304c0.384 0.384 0.896 0.64 1.28 1.024 21.248 15.872 44.672 28.16 69.248 36.352l24.32-49.792-32.384-148.608c-1.152-5.504 0.512-11.392 4.48-15.232l62.72-60.544c2.816-2.816 6.528-4.096 10.112-4.096s7.296 1.408 10.112 4.096l62.72 60.544c3.968 3.84 5.632 9.6 4.48 15.232l-32.384 148.608 24.32 49.792c35.84-12.032 69.376-32.768 97.024-60.544 46.208-46.464 71.808-106.752 71.808-169.728v-67.84h-327.552c-8.32 0-14.976-7.040-14.976-15.744s6.656-15.744 14.976-15.744h342.016c8.32 0 14.976 7.040 14.976 15.744v83.584c0 121.088-85.12 228.608-197.376 262.272zM174.976 483.584v37.12h35.84v-67.84c0-10.496-8.064-18.944-17.92-18.944s-17.92 8.448-17.92 18.944v30.72zM518.528 794.368h-259.968v52.096c0 14.336 11.136 26.112 24.704 26.112h210.56c13.696 0 24.704-11.776 24.704-26.112v-52.096zM572.032 794.368h-23.552v52.096c0 31.872-24.448 57.728-54.656 57.728h-210.56c-30.080 0-54.656-25.856-54.656-57.728v-52.096h-23.552v63.36c0 38.912 29.952 70.656 66.944 70.656h233.216c36.864 0 66.944-31.744 66.944-70.656v-63.36zM569.472 482.048v-29.184c0-10.496-8.064-18.944-17.92-18.944s-17.92 8.448-17.92 18.944v67.84h35.84v-38.656zM650.368 530.944c0 59.648 44.544 108.672 100.352 111.616 1.792 0.128 3.584 0.128 5.376 0.128 1.664 0 3.456 0 5.12-0.128 0 0 0.128 0 0.128 0s0 0 0.128 0c0 0 0.128 0 0.128 0 55.808-2.944 100.352-51.968 100.352-111.616v-37.632c-48.256 9.472-67.712 61.184-68.608 63.616-2.048 5.76-7.168 9.728-12.928 10.112s-11.392-2.816-14.208-8.192c-1.408-2.56-32.512-60.288-115.968-66.56l0.128 38.656zM802.304 69.12l-46.208-44.672-46.080 44.672 29.056 133.12h34.304l28.928-133.12zM716.8 273.664c1.28 0.256 2.56 0.512 3.968 0.768 0.896 0.128 1.92 0.384 2.816 0.512 1.664 0.256 3.328 0.512 4.864 0.768 2.176 0.256 4.224 0.512 6.4 0.768 0.896 0.128 1.664 0.128 2.56 0.256 0.256 0 0.384 0 0.64 0 2.176 0.256 4.48 0.384 6.656 0.512 0.896 0 1.792 0.128 2.688 0.128 0 0 0 0 0 0 1.792 0.128 3.584 0.128 5.376 0.256 1.152 0 2.176-0.128 3.328-0.128s2.304 0 3.328 0.128c1.792 0 3.584-0.128 5.376-0.256 0.64 0 1.152 0 1.792-0.128 2.56-0.128 5.248-0.384 7.808-0.64 1.024-0.128 1.92-0.256 2.944-0.256 2.176-0.256 4.352-0.512 6.528-0.768 1.536-0.256 3.2-0.512 4.736-0.768 0.896-0.128 1.92-0.384 2.816-0.512 1.28-0.256 2.56-0.512 3.968-0.768l-19.456-39.808h-39.808l-19.328 39.936zM762.368 309.376c-0.256 0-0.64 0-0.896 0-0.384 0-0.768 0-1.152-0.128-0.128 0-0.256 0-0.384 0-1.152 0-2.432 0.128-3.584 0.128-0.128 0-0.256 0-0.384 0-1.152 0-2.432-0.128-3.584-0.128-54.528 2.048-99.2 49.152-102.016 106.112-0.128 1.792-0.128 3.712-0.128 5.504v39.68c67.584 4.352 107.392 38.016 126.976 61.184 13.824-22.784 40.576-54.4 84.864-60.544v-40.32c0-59.392-44.16-108.032-99.712-111.488z" />
<glyph unicode="&#xe923;" glyph-name="game-controller" d="M995.533 493.517c-45.158 252.211-146.125 326.605-199.834 326.605-83.814 0-105.318-62.31-283.699-64.41-178.381 2.099-199.885 64.41-283.699 64.41-53.709 0-154.726-74.394-199.885-326.605-25.754-143.974-53.709-358.912 12.902-384.717 82.893-32.102 111.002 48.179 202.035 116.019 92.416 68.762 136.755 84.941 268.646 84.941s176.23-16.179 268.646-84.941c91.034-67.789 119.142-148.122 202.035-116.019 66.611 25.805 38.656 240.691 12.851 384.717zM307.2 460.8c-56.576 0-102.4 45.875-102.4 102.4 0 56.576 45.824 102.4 102.4 102.4s102.4-45.824 102.4-102.4c0-56.525-45.875-102.4-102.4-102.4zM665.6 460.8c-28.314 0-51.2 22.886-51.2 51.2s22.886 51.2 51.2 51.2c28.314 0 51.2-22.886 51.2-51.2s-22.886-51.2-51.2-51.2zM768 563.2c-28.314 0-51.2 22.886-51.2 51.2s22.886 51.2 51.2 51.2c28.314 0 51.2-22.886 51.2-51.2s-22.886-51.2-51.2-51.2z" />
</font>
</defs>
</svg>
